<?xml version="1.0" standalone="no"?>
<!DOCTYPE svg PUBLIC "-//W3C//DTD SVG 20010904//EN"
 "http://www.w3.org/TR/2001/REC-SVG-20010904/DTD/svg10.dtd">
<svg version="1.0" xmlns="http://www.w3.org/2000/svg"
 width="410.000000pt" height="417.000000pt" viewBox="0 0 300.000000 307.000000"
 preserveAspectRatio="xMidYMid meet">
<metadata>
Created by potrace 1.10, written by Peter Selinger 2001-2011
</metadata>
<g transform="translate(0.000000,307.000000) scale(0.100000,-0.100000)"
fill="#fff" stroke="none">
<path d="M1990 3051 c-44 -14 -88 -40 -104 -63 -22 -30 -20 -69 6 -156 26 -90
23 -95 -87 -123 -146 -38 -234 -100 -284 -201 -17 -34 -31 -67 -31 -75 0 -10
-23 -13 -97 -13 -255 0 -612 -50 -833 -116 -208 -62 -333 -125 -420 -213 -94
-94 -112 -168 -66 -266 52 -113 244 -230 484 -296 45 -12 82 -25 82 -29 0 -4
-17 -19 -37 -32 -190 -126 -313 -333 -344 -577 -29 -226 58 -476 223 -638 80
-80 127 -114 218 -159 304 -150 671 -87 910 156 120 122 173 225 232 450 26
102 31 139 38 325 8 220 13 250 54 318 49 84 69 95 207 117 417 68 718 206
794 365 28 60 25 141 -8 198 -82 140 -300 246 -679 331 -46 10 -35 39 37 91
35 26 72 59 82 74 22 33 21 107 -2 152 -23 44 -95 142 -102 136 -2 -3 0 -31 6
-62 14 -74 -2 -112 -62 -154 -25 -17 -47 -31 -50 -31 -2 0 -2 13 1 28 9 64
-40 230 -59 200 -5 -7 -9 -31 -9 -53 0 -26 -11 -58 -30 -92 -35 -61 -55 -78
-35 -29 19 45 19 89 0 196 -20 115 -11 165 43 223 l26 27 -40 -1 c-21 0 -50
-4 -64 -8z m15 -48 c-20 -47 -22 -103 -9 -197 25 -169 11 -204 -121 -315 l-84
-71 -123 0 c-68 0 -129 4 -136 8 -19 13 16 88 66 139 51 52 120 88 216 112
130 33 141 49 107 164 -27 91 -26 109 2 134 46 42 95 58 82 26z m122 -449 c-6
-81 -42 -178 -63 -170 -8 3 -54 8 -104 12 -49 4 -90 10 -90 15 0 4 38 39 84
78 82 69 141 141 153 191 6 23 8 22 16 -15 5 -22 6 -72 4 -111z m207 111 c10
-20 18 -54 18 -76 0 -45 -17 -69 -95 -126 -26 -19 -54 -48 -63 -64 -8 -16 -22
-29 -31 -29 -14 0 -15 9 -10 68 l7 67 69 65 c48 45 71 75 76 98 4 17 8 32 10
32 1 0 10 -16 19 -35z m-374 -309 c355 -44 619 -119 787 -222 243 -150 217
-330 -68 -475 -78 -39 -274 -103 -396 -129 l-102 -22 -58 23 c-45 17 -79 23
-150 23 -51 1 -93 3 -93 6 1 20 28 29 115 39 331 41 604 128 671 216 111 145
-151 280 -681 352 -188 25 -814 25 -995 0 -410 -57 -634 -142 -670 -253 -36
-108 146 -210 498 -278 l116 -23 -69 -25 c-165 -61 -150 -61 -315 -12 -305 92
-481 233 -456 367 38 204 467 372 1086 426 145 13 640 5 780 -13z m-678 -247
c-54 -53 -80 -111 -98 -211 -8 -46 -17 -91 -20 -101 -9 -28 -62 -85 -111 -119
l-45 -30 -106 16 c-312 48 -542 144 -542 225 0 93 271 192 645 236 139 16 192
20 269 23 l48 2 -40 -41z m127 24 c-4 -41 2 -63 24 -89 19 -22 32 -27 63 -26
54 2 87 40 82 94 l-4 38 42 0 41 0 -4 -117 c-19 -539 -63 -631 -448 -953 -172
-143 -217 -193 -264 -290 -35 -72 -36 -79 -36 -185 0 -105 2 -114 33 -178 19
-38 32 -71 29 -73 -2 -3 -31 -6 -63 -7 l-59 -2 -42 75 c-85 147 -123 283 -130
461 -15 344 107 536 442 698 77 38 148 77 157 88 48 53 59 139 33 248 -8 33
-15 82 -15 109 0 44 4 53 40 88 43 40 83 51 79 21z m483 -2 c4 -4 -10 -42 -32
-85 -59 -119 -71 -186 -80 -466 -13 -373 -38 -505 -133 -695 -104 -211 -311
-403 -528 -490 l-72 -29 -23 29 c-50 63 -59 94 -59 205 0 97 2 110 31 170 39
82 110 159 249 272 223 181 324 302 385 459 38 100 58 215 74 440 7 102 16
191 19 196 7 11 157 5 169 -6z m212 -29 c5 -3 -9 -14 -30 -25 -63 -31 -84 -56
-84 -97 0 -52 24 -82 63 -78 24 2 35 10 46 33 15 34 50 75 63 75 5 0 0 -12
-12 -27 -13 -19 -23 -55 -29 -112 -11 -104 -26 -125 -119 -171 -78 -39 -125
-78 -150 -127 -17 -32 -17 -30 -15 80 3 186 31 307 96 415 l32 54 65 -7 c36
-4 69 -10 74 -13z m286 -58 c150 -45 260 -115 260 -164 0 -89 -263 -185 -645
-235 -57 -8 -53 5 8 25 22 7 58 31 82 54 45 43 48 51 60 169 6 49 13 66 42 98
35 39 36 40 14 46 -21 5 -21 6 -4 25 21 24 55 20 183 -18z m-1123 -150 c30
-156 8 -194 -161 -274 -208 -98 -307 -173 -385 -293 -141 -218 -145 -587 -9
-862 16 -33 39 -75 51 -94 l21 -34 -55 6 c-29 4 -55 11 -57 15 -1 5 -48 79
-103 163 -165 251 -192 319 -193 464 0 156 53 284 164 395 75 75 146 115 290
166 199 69 313 143 351 229 10 22 23 72 29 110 12 82 33 142 38 110 1 -11 10
-57 19 -101z m719 -445 c-39 -35 -67 -74 -93 -126 l-37 -75 -7 -212 c-12 -337
-59 -485 -200 -626 -99 -98 -274 -162 -388 -140 -56 10 -155 50 -147 58 3 3
30 15 59 27 144 58 370 249 462 390 97 149 149 295 171 479 17 145 37 202 82
234 30 22 85 39 130 41 20 1 15 -7 -32 -50z m-1641 -644 c24 -71 75 -162 166
-297 46 -69 74 -118 66 -118 -21 0 -128 73 -164 111 -91 99 -139 227 -130 349
4 43 12 100 19 127 l13 48 6 -85 c4 -47 14 -107 24 -135z m160 -443 c33 -16
77 -35 97 -41 34 -11 39 -18 52 -64 22 -80 28 -117 19 -117 -18 0 -116 73
-169 127 -54 54 -134 165 -134 187 0 5 17 -6 38 -26 20 -20 64 -49 97 -66z
m672 -131 c113 -38 261 -24 376 36 75 40 76 40 32 -6 -47 -49 -152 -122 -217
-150 -43 -18 -50 -18 -127 -5 -106 18 -192 54 -265 109 -81 60 -88 75 -39 76
21 1 52 4 68 8 23 5 39 0 70 -20 22 -15 68 -37 102 -48z m-291 -11 c70 -65
140 -107 234 -141 l65 -24 -55 -7 c-99 -14 -257 7 -360 48 -38 15 -38 16 -43
82 -3 37 -8 76 -12 88 -6 20 -4 21 52 16 54 -4 62 -8 119 -62z"/>
</g>
</svg>
